<svg height="512" width="512" xmlns="http://www.w3.org/2000/svg"><path clip-rule="evenodd" d="M100.518 170.883l113.356 13.69 139.647-13.69c10.819 0 19.613-8.825 19.613-19.613 0-10.819-8.794-19.644-19.613-19.644h-12.33l-151.01-31.823 151.01-31.792h12.33c10.819 0 19.613-8.825 19.613-19.644s-8.794-19.613-19.613-19.613H100.518c-39.165 0-71.078 31.913-71.078 71.049 0 18.888 7.495 36.87 20.852 50.227s31.338 20.853 50.226 20.853z" fill="#ffe07d" fill-rule="evenodd"/><path clip-rule="evenodd" d="M100.518 131.626h240.673c-10.094-21.336-10.033-42.551 0-63.615H100.518c-17.497 0-31.822 14.325-31.822 31.792 0 8.492 3.354 16.47 9.338 22.484 6.014 5.984 13.992 9.339 22.484 9.339z" fill="#f9f7f8" fill-rule="evenodd"/><path clip-rule="evenodd" d="M341.191 68.011H100.518c-17.497 0-31.822 14.325-31.822 31.792 0 4.866 1.118 9.55 3.173 13.811 5.168-10.638 16.077-18.042 28.649-18.042l233.239.03c.574-9.247 3.082-18.434 7.434-27.591z" fill="#dddaec" fill-rule="evenodd"/><path clip-rule="evenodd" d="M353.52 28.754h-93.44c5.621 12.028 9.731 25.234 12.088 39.257h81.353c10.819 0 19.613-8.825 19.613-19.644s-8.795-19.613-19.614-19.613z" fill="#ffd064" fill-rule="evenodd"/><path clip-rule="evenodd" d="M227.593 346.225l171.741-19.16c19.975 0 36.325-16.35 36.325-36.326v-83.53c0-19.976-16.349-36.326-36.325-36.326H48.599c-10.547 0-19.16 8.613-19.16 19.16s8.613 19.16 19.16 19.16H66.64l330.699 39.771-330.698 39.77H48.599c-10.547 0-19.16 8.613-19.16 19.16s8.613 19.16 19.16 19.16z" fill="#a7e9a6" fill-rule="evenodd"/><path clip-rule="evenodd" d="M66.641 288.744h321.028c5.319 0 9.67-4.352 9.67-9.671v-60.2c0-5.319-4.352-9.671-9.67-9.671H66.641c6.316 13.237 9.489 26.474 9.459 39.771 0 13.207-3.143 26.474-9.459 39.771z" fill="#f9f7f8" fill-rule="evenodd"/><path clip-rule="evenodd" d="M387.669 209.203H66.641c3.113 6.498 5.44 12.995 7.011 19.492h291.594c5.289 0 9.64 4.352 9.64 9.671v50.378h12.783c5.319 0 9.67-4.352 9.67-9.671v-60.2c0-5.318-4.351-9.67-9.67-9.67z" fill="#dddaec" fill-rule="evenodd"/><path clip-rule="evenodd" d="M341.191 131.626h-71.108c-3.354 14.204-8.613 27.41-15.382 39.257h98.82c10.819 0 19.613-8.825 19.613-19.613 0-10.819-8.794-19.644-19.613-19.644z" fill="#ffd064" fill-rule="evenodd"/><path clip-rule="evenodd" d="M399.334 170.883h-75.067c6.286 11.635 11.121 24.539 14.203 38.32h49.198c5.319 0 9.67 4.352 9.67 9.671v60.2c0 5.319-4.352 9.671-9.67 9.671h-51.676c-4.08 13.962-10.003 26.897-17.467 38.32h80.809c19.975 0 36.325-16.35 36.325-36.326v-83.53c0-19.977-16.349-36.326-36.325-36.326z" fill="#7fdbae" fill-rule="evenodd"/><path clip-rule="evenodd" d="M48.599 327.065h-4.805c-19.975 0-36.294 16.35-36.294 36.326v83.53c0 19.976 16.349 36.326 36.294 36.326H485.34c7.978 0 14.868-4.956 17.739-11.937a19.22 19.22 0 001.42-7.223c0-2.569-.514-5.017-1.42-7.253-2.871-6.981-9.761-11.907-17.739-11.907h-18.041l-421.48-36.265 421.48-43.276h18.041c7.978 0 14.868-4.926 17.739-11.907a19.258 19.258 0 001.42-7.253c0-2.539-.514-4.986-1.42-7.223-2.871-6.981-9.761-11.937-17.739-11.937l-436.741-.001z" fill="#ffe07d" fill-rule="evenodd"/><path clip-rule="evenodd" d="M467.299 444.926h-78.935c-5.137 14.234-12.269 27.169-20.943 38.32H485.34c7.978 0 14.868-4.956 17.739-11.937a19.22 19.22 0 001.42-7.223c0-2.569-.514-5.017-1.42-7.253-2.871-6.981-9.761-11.907-17.739-11.907zm18.041-117.861H384.103c5.319 11.816 9.247 24.69 11.423 38.32h89.814c7.978 0 14.868-4.926 17.739-11.907a19.258 19.258 0 001.42-7.253c0-2.539-.514-4.986-1.42-7.223-2.87-6.981-9.76-11.937-17.739-11.937z" fill="#ffd064" fill-rule="evenodd"/><path clip-rule="evenodd" d="M457.84 405.155c-.03-13.297 3.143-26.564 9.459-39.771H55.489c-5.319 0-9.67 4.352-9.67 9.671v60.2c0 5.319 4.352 9.671 9.67 9.671h411.81c-6.316-13.297-9.459-26.564-9.459-39.771z" fill="#f9f7f8" fill-rule="evenodd"/><path clip-rule="evenodd" d="M137.295 365.385H55.49c-5.319 0-9.67 4.352-9.67 9.671v30.1c0-5.319 4.352-9.671 9.67-9.671h402.895c1.148-10.033 4.14-20.067 8.915-30.1H200.183z" fill="#dddaec" fill-rule="evenodd"/><path clip-rule="evenodd" d="M137.295 397.781c-.363 4.594 1.42 6.074 5.289 2.539l26.14-24.932 26.14 24.932c3.868 3.536 5.681 2.055 5.289-2.539.03-49.593.03-99.215.06-148.808h-62.948c0 49.593.03 99.216.03 148.808z" fill="#eb5468" fill-rule="evenodd"/><path clip-rule="evenodd" d="M200.214 248.974h-21.486c-.03 45.301-.03 90.602-.03 135.904l11.121 10.608 5.047 4.835c3.868 3.536 5.681 2.055 5.289-2.539v-2.297c.028-48.837.028-97.674.059-146.511z" fill="#e5384f" fill-rule="evenodd"/><path d="M485.341 437.426h-13.18c-9.144-21.726-9.148-42.925-.01-64.542h13.19c14.7 0 26.659-11.959 26.659-26.66 0-14.7-11.959-26.66-26.659-26.66h-53.038c6.751-7.712 10.855-17.795 10.855-28.826v-83.53c0-24.166-19.659-43.826-43.824-43.826h-21.567a26.94 26.94 0 002.866-12.113c0-14.967-12.162-27.144-27.112-27.144h-7.419c-6.621-16.367-6.625-32.353-.011-48.615h7.43c14.95 0 27.112-12.177 27.112-27.144 0-14.95-12.162-27.113-27.112-27.113H100.518c-43.328 0-78.578 35.237-78.578 78.549 0 20.946 8.186 40.667 23.048 55.53a79.925 79.925 0 009.419 8.049h-5.808c-14.7 0-26.659 11.959-26.659 26.66s11.959 26.66 26.659 26.66h13.19c9.138 21.615 9.135 42.815-.01 64.541h-13.18c-14.7 0-26.659 11.959-26.659 26.66a26.504 26.504 0 004.739 15.148C11.011 329.735 0 345.299 0 363.39v83.531c0 24.166 19.646 43.825 43.794 43.825H485.34c14.7 0 26.659-11.959 26.659-26.66.001-14.7-11.958-26.66-26.658-26.66zm0-102.862c6.429 0 11.659 5.231 11.659 11.66s-5.23 11.66-11.659 11.66H349.984c-4.143 0-7.5 3.358-7.5 7.5s3.357 7.5 7.5 7.5h106.078c-2.931 8.232-4.723 16.496-5.4 24.771 0 0-2.996 14.845 5.416 39.771H55.49c-1.176 0-2.17-.994-2.17-2.171v-60.2c0-1.176.994-2.17 2.17-2.17h74.301l.005 24.632c-.473 7.374 3.128 10.28 5.339 11.36 2.241 1.096 6.845 2.157 12.51-3.021l.116-.108 20.964-19.995 20.964 19.995c.038.037.077.073.116.108 3.316 3.031 6.268 3.926 8.599 3.926a8.928 8.928 0 003.949-.918c2.214-1.09 5.81-4.01 5.301-11.367l.01-24.612h105.392c4.143 0 7.5-3.358 7.5-7.5s-3.357-7.5-7.5-7.5H207.669l.01-23.32h277.662zm-402.059-93.09c-.676-8.275-2.503-16.538-5.432-24.771h309.82c1.177 0 2.171.994 2.171 2.17v60.2c0 1.176-.994 2.17-2.171 2.17H207.701l.01-24.771H260.2c4.143 0 7.5-3.358 7.5-7.5s-3.357-7.5-7.5-7.5H83.282zm46.49 39.77H77.833c2.927-8.244 4.757-16.507 5.441-24.771h46.493zm62.939-24.77l-.054 131.376-18.757-17.89a7.5 7.5 0 00-10.353 0l-18.754 17.888-.027-131.375h47.945zM36.94 99.803c0-35.041 28.521-63.549 63.578-63.549h253.003c6.679 0 12.112 5.434 12.112 12.113 0 6.696-5.434 12.144-12.112 12.144H215.263a7.5 7.5 0 000 15H330.11c-5.294 16.134-5.287 32.411.02 48.615H100.518c-6.45 0-12.557-2.541-17.167-7.128-4.614-4.638-7.155-10.744-7.155-17.195 0-13.395 10.911-24.292 24.322-24.292h77.817a7.5 7.5 0 000-15h-77.817c-21.682 0-39.322 17.626-39.322 39.292 0 10.443 4.092 20.307 11.548 27.801 7.468 7.43 17.331 11.522 27.774 11.522h253.003c6.679 0 12.112 5.448 12.112 12.144 0 6.679-5.434 12.113-12.112 12.113H100.518c-16.939 0-32.893-6.625-44.923-18.656-12.03-12.03-18.655-27.984-18.655-44.924zm11.659 101.9c-6.429 0-11.659-5.23-11.659-11.66 0-6.429 5.23-11.66 11.659-11.66h350.735c15.894 0 28.824 12.931 28.824 28.826v83.53c0 15.895-12.931 28.826-28.824 28.826H207.685l.01-23.32h179.974c9.468 0 17.171-7.703 17.171-17.17v-60.2c0-9.468-7.703-17.17-17.171-17.17H48.599zm0 94.541h81.176l.005 23.32H48.6c-6.429 0-11.659-5.231-11.659-11.66-.001-6.429 5.229-11.66 11.658-11.66zm436.742 179.502H43.794C27.917 475.746 15 462.815 15 446.921V363.39c0-15.895 12.917-28.826 28.794-28.826h85.988l.005 23.32H55.49c-9.468 0-17.17 7.703-17.17 17.17v60.2c0 9.468 7.703 17.171 17.17 17.171h429.851c6.429 0 11.659 5.231 11.659 11.66s-5.23 11.661-11.659 11.661z"/></svg>